<?xml version="1.0" encoding="utf-8"?>
<svg xmlns="http://www.w3.org/2000/svg" style="margin: auto; background: none; display: block; shape-rendering: auto;" width="280" height="250" preserveAspectRatio="xMidYMid">
<style type="text/css">
  text {
    text-anchor: middle; font-size: 80px; opacity: 0;
  }
</style>
<g style="transform-origin:140px 125px;transform:scale(1)">
<g transform="translate(140,125)">
  <g transform="translate(0,0)"><g class="path" style="transform: scale(0.91); transform-origin: -61.6px -8.4072px; animation: 1s linear -0.508333s infinite normal forwards running breath-dec296a5-50d7-4c19-9eca-d01b386a2c0f;"><path d="M29.92-23.68L29.92-29.68L48.72-29.68L48.72 0L42 0L42-5.60L42-5.60Q39.20-3.12 35.20-1.08L35.20-1.08L35.20-1.08Q31.20 0.96 26.32 0.96L26.32 0.96L26.32 0.96Q21.44 0.96 17.36-0.96L17.36-0.96L17.36-0.96Q13.28-2.88 10.32-6.48L10.32-6.48L10.32-6.48Q7.36-10.08 5.68-15.16L5.68-15.16L5.68-15.16Q4-20.24 4-26.56L4-26.56L4-26.56Q4-33.28 5.72-38.84L5.72-38.84L5.72-38.84Q7.44-44.40 10.72-48.44L10.72-48.44L10.72-48.44Q14-52.48 18.76-54.72L18.76-54.72L18.76-54.72Q23.52-56.96 29.60-56.96L29.60-56.96L29.60-56.96Q34.88-56.96 38.92-55.68L38.92-55.68L38.92-55.68Q42.96-54.40 46.56-52.40L46.56-52.40L43.76-46.08L43.76-46.08Q40.40-47.92 36.96-49.12L36.96-49.12L36.96-49.12Q33.52-50.32 29.20-50.32L29.20-50.32L29.20-50.32Q25.44-50.32 22.24-48.80L22.24-48.80L22.24-48.80Q19.04-47.28 16.72-44.32L16.72-44.32L16.72-44.32Q14.40-41.36 13.08-37L13.08-37L13.08-37Q11.76-32.64 11.76-27.04L11.76-27.04L11.76-27.04Q11.76-22 12.96-18.04L12.96-18.04L12.96-18.04Q14.16-14.08 16.32-11.32L16.32-11.32L16.32-11.32Q18.48-8.56 21.48-7.12L21.48-7.12L21.48-7.12Q24.48-5.68 28.08-5.68L28.08-5.68L28.08-5.68Q30.32-5.68 32.32-6.20L32.32-6.20L32.32-6.20Q34.32-6.72 36-7.56L36-7.56L36-7.56Q37.68-8.40 39.08-9.40L39.08-9.40L39.08-9.40Q40.48-10.40 41.52-11.44L41.52-11.44L41.52-23.68L29.92-23.68" fill="#080604" stroke="none" stroke-width="none" transform="translate(-87.9599552154541,19.592802152633666)" style="fill: rgb(8, 6, 4);"></path></g><g class="path" style="transform: scale(0.91); transform-origin: -17.4px -9.5272px; animation: 1s linear -0.406667s infinite normal forwards running breath-dec296a5-50d7-4c19-9eca-d01b386a2c0f;"><path d="M67.12-59.20L67.12-13.76L67.12-13.76Q67.12-9.44 68.92-7.36L68.92-7.36L68.92-7.36Q70.72-5.28 73.92-5.28L73.92-5.28L73.92-5.28Q75.44-5.28 76.88-5.64L76.88-5.64L76.88-5.64Q78.32-6 79.44-6.48L79.44-6.48L81.20-0.64L81.20-0.64Q79.76 0 77.64 0.48L77.64 0.48L77.64 0.48Q75.52 0.96 72.96 0.96L72.96 0.96L72.96 0.96Q70.16 0.96 67.80 0.16L67.80 0.16L67.80 0.16Q65.44-0.64 63.68-2.32L63.68-2.32L63.68-2.32Q61.92-4 60.92-6.64L60.92-6.64L60.92-6.64Q59.92-9.28 59.92-13.04L59.92-13.04L59.92-59.20L67.12-59.20" fill="#080604" stroke="none" stroke-width="none" transform="translate(-87.9599552154541,19.592802152633666)" style="fill: rgb(8, 6, 4);"></path></g><g class="path" style="transform: scale(0.91); transform-origin: 3.64005px -1.2072px; animation: 1s linear -0.305s infinite normal forwards running breath-dec296a5-50d7-4c19-9eca-d01b386a2c0f;"><path d="M95.20-41.60L95.20 0L88 0L88-41.60L95.20-41.60" fill="#080604" stroke="none" stroke-width="none" transform="translate(-87.9599552154541,19.592802152633666)" style="fill: rgb(243, 182, 63);"></path></g><g class="path" style="transform: scale(0.91); transform-origin: 3.64005px -34.1672px; animation: 1s linear -0.203333s infinite normal forwards running breath-dec296a5-50d7-4c19-9eca-d01b386a2c0f;"><path d="M91.60-48.72L91.60-48.72L91.60-48.72Q89.52-48.72 88.04-50.20L88.04-50.20L88.04-50.20Q86.56-51.68 86.56-53.76L86.56-53.76L86.56-53.76Q86.56-56.08 87.92-57.44L87.92-57.44L87.92-57.44Q89.28-58.80 91.60-58.80L91.60-58.80L91.60-58.80Q93.68-58.80 95.16-57.32L95.16-57.32L95.16-57.32Q96.64-55.84 96.64-53.76L96.64-53.76L96.64-53.76Q96.64-51.44 95.28-50.08L95.28-50.08L95.28-50.08Q93.92-48.72 91.60-48.72" fill="#080604" stroke="none" stroke-width="none" transform="translate(-87.9599552154541,19.592802152633666)" style="fill: rgb(8, 6, 4);"></path></g><g class="path" style="transform: scale(0.91); transform-origin: 37.5201px -1.6872px; animation: 1s linear -0.101667s infinite normal forwards running breath-dec296a5-50d7-4c19-9eca-d01b386a2c0f;"><path d="M114.96-41.60L114.96-34.64L114.96-34.64Q117.20-38 120.68-40.28L120.68-40.28L120.68-40.28Q124.16-42.56 128.96-42.56L128.96-42.56L128.96-42.56Q136-42.56 139.48-38.32L139.48-38.32L139.48-38.32Q142.96-34.08 142.96-27.12L142.96-27.12L142.96 0L135.76 0L135.76-26.32L135.76-26.32Q135.76-30.88 133.68-33.56L133.68-33.56L133.68-33.56Q131.60-36.24 127.76-36.24L127.76-36.24L127.76-36.24Q125.92-36.24 124.16-35.56L124.16-35.56L124.16-35.56Q122.40-34.88 120.76-33.68L120.76-33.68L120.76-33.68Q119.12-32.48 117.72-30.88L117.72-30.88L117.72-30.88Q116.32-29.28 115.20-27.52L115.20-27.52L115.20 0L108 0L108-41.60L114.96-41.60" fill="#080604" stroke="none" stroke-width="none" transform="translate(-87.9599552154541,19.592802152633666)" style="fill: rgb(8, 6, 4);"></path></g><g class="path" style="transform: scale(0.91); transform-origin: 76.88px -6.5272px; animation: 1s linear 0s infinite normal forwards running breath-dec296a5-50d7-4c19-9eca-d01b386a2c0f;"><path d="M157.12-40.08L158.64-53.20L164.16-53.20L164.16-40.08L175.68-40.08L175.68-33.84L164.16-33.84L164.16-13.76L164.16-13.76Q164.16-11.44 164.68-9.84L164.68-9.84L164.68-9.84Q165.20-8.24 166.08-7.28L166.08-7.28L166.08-7.28Q166.96-6.32 168.20-5.88L168.20-5.88L168.20-5.88Q169.44-5.44 170.80-5.44L170.80-5.44L170.80-5.44Q172.80-5.44 174.56-6.08L174.56-6.08L174.56-6.08Q176.32-6.72 177.92-7.60L177.92-7.60L179.92-1.84L179.92-1.84Q178.32-0.88 175.60 0.04L175.60 0.04L175.60 0.04Q172.88 0.96 169.92 0.96L169.92 0.96L169.92 0.96Q163.92 0.96 160.44-2.96L160.44-2.96L160.44-2.96Q156.96-6.88 156.96-14.32L156.96-14.32L156.96-33.84L149.76-33.84L149.76-40.08L157.12-40.08" fill="#080604" stroke="none" stroke-width="none" transform="translate(-87.9599552154541,19.592802152633666)" style="fill: rgb(8, 6, 4);"></path></g></g>
</g>
</g>
<style id="breath-dec296a5-50d7-4c19-9eca-d01b386a2c0f" data-anikit="">@keyframes breath-dec296a5-50d7-4c19-9eca-d01b386a2c0f
{
  0% {
    animation-timing-function: cubic-bezier(0.9647,0.2413,-0.0705,0.7911);
    transform: scale(0.9099999999999999);
  }
  51% {
    animation-timing-function: cubic-bezier(0.9226,0.2631,-0.0308,0.7628);
    transform: scale(1.02994);
  }
  100% {
    transform: scale(0.9099999999999999);
  }
}</style></svg>